<?xml version="1.0" encoding="UTF-8" standalone="no"?><svg xmlns="http://www.w3.org/2000/svg" xmlns:xlink="http://www.w3.org/1999/xlink" contentScriptType="application/ecmascript" contentStyleType="text/css" height="991px" preserveAspectRatio="none" style="width:1592px;height:991px;" version="1.1" viewBox="0 0 1592 991" width="1592px" zoomAndPan="magnify"><defs><filter height="300%" id="f13ve2rodvyiqp" width="300%" x="-1" y="-1"><feGaussianBlur result="blurOut" stdDeviation="2.0"/><feColorMatrix in="blurOut" result="blurOut2" type="matrix" values="0 0 0 0 0 0 0 0 0 0 0 0 0 0 0 0 0 0 .4 0"/><feOffset dx="4.0" dy="4.0" in="blurOut2" result="blurOut3"/><feBlend in="SourceGraphic" in2="blurOut3" mode="normal"/></filter></defs><g><!--MD5=[4f1831265b35d0a9883b424778faf966]
cluster pancake4--><polygon fill="#FFFFFF" filter="url(#f13ve2rodvyiqp)" points="16,6,99,6,106,28.2969,1521,28.2969,1521,984,16,984,16,6" style="stroke:#000000;stroke-width:1.5;"/><line style="stroke:#000000;stroke-width:1.5;" x1="16" x2="106" y1="28.2969" y2="28.2969"/><text fill="#000000" font-family="sans-serif" font-size="14" font-weight="bold" lengthAdjust="spacing" textLength="77" x="20" y="20.9951">pancake4</text><!--MD5=[de1e9ff436b7e56f44f1748af008d9a0]
cluster gameEngine--><polygon fill="#FFFFFF" filter="url(#f13ve2rodvyiqp)" points="40,49,143,49,150,71.2969,696,71.2969,696,574,40,574,40,49" style="stroke:#000000;stroke-width:1.5;"/><line style="stroke:#000000;stroke-width:1.5;" x1="40" x2="150" y1="71.2969" y2="71.2969"/><text fill="#000000" font-family="sans-serif" font-size="14" font-weight="bold" lengthAdjust="spacing" textLength="97" x="44" y="63.9951">gameEngine</text><!--MD5=[42603eecb267091c13893a16d8c379fb]
cluster player--><polygon fill="#FFFFFF" filter="url(#f13ve2rodvyiqp)" points="720,430,776,430,783,452.2969,1497,452.2969,1497,960,720,960,720,430" style="stroke:#000000;stroke-width:1.5;"/><line style="stroke:#000000;stroke-width:1.5;" x1="720" x2="783" y1="452.2969" y2="452.2969"/><text fill="#000000" font-family="sans-serif" font-size="14" font-weight="bold" lengthAdjust="spacing" textLength="50" x="724" y="444.9951">player</text><!--MD5=[4c4f9bfd341bac61a81f41cc6d797543]
cluster artificialIntelligence--><polygon fill="#FFFFFF" filter="url(#f13ve2rodvyiqp)" points="976,623,1147,623,1154,645.2969,1473,645.2969,1473,936,976,936,976,623" style="stroke:#000000;stroke-width:1.5;"/><line style="stroke:#000000;stroke-width:1.5;" x1="976" x2="1154" y1="645.2969" y2="645.2969"/><text fill="#000000" font-family="sans-serif" font-size="14" font-weight="bold" lengthAdjust="spacing" textLength="165" x="980" y="637.9951">artificialIntelligence</text><!--MD5=[60d6b92408f98aed8df94d5c6e04aa63]
class State--><rect codeLine="3" fill="#FEFECE" filter="url(#f13ve2rodvyiqp)" height="99.2188" id="State" style="stroke:#A80036;stroke-width:1.5;" width="173" x="506.5" y="244"/><ellipse cx="572.75" cy="260" fill="#B4A7E5" rx="11" ry="11" style="stroke:#A80036;stroke-width:1.0;"/><path d="M573.7031,256.7813 L575.4219,256.7813 C575.8125,256.7813 576,256.75 576.125,256.6719 C576.3906,256.5156 576.5313,256.2344 576.5313,255.9375 C576.5313,255.6719 576.4219,255.4063 576.1875,255.2344 C576.0156,255.125 575.875,255.0938 575.4219,255.0938 L570.2813,255.0938 C569.8438,255.0938 569.7188,255.1094 569.5625,255.2031 C569.3125,255.3594 569.1563,255.6563 569.1563,255.9375 C569.1563,256.2188 569.2969,256.4688 569.5156,256.6406 C569.6719,256.75 569.8594,256.7813 570.2813,256.7813 L572,256.7813 L572,263.2969 L570.2813,263.2969 C569.8438,263.2969 569.7188,263.3125 569.5625,263.4219 C569.3125,263.5781 569.1563,263.8594 569.1563,264.1563 C569.1563,264.4063 569.2969,264.6719 569.5156,264.8281 C569.6719,264.9531 569.875,265 570.2813,265 L575.4219,265 C576.1719,265 576.5313,264.7188 576.5313,264.1563 C576.5313,263.875 576.4219,263.625 576.1875,263.4531 C576.0156,263.3281 575.875,263.2969 575.4219,263.2969 L573.7031,263.2969 L573.7031,256.7813 Z " fill="#000000"/><text fill="#000000" font-family="sans-serif" font-size="12" font-style="italic" lengthAdjust="spacing" textLength="32" x="593.25" y="264.1543">State</text><line style="stroke:#A80036;stroke-width:1.5;" x1="507.5" x2="678.5" y1="276" y2="276"/><line style="stroke:#A80036;stroke-width:1.5;" x1="507.5" x2="678.5" y1="284" y2="284"/><ellipse cx="517.5" cy="295" fill="#84BE84" rx="3" ry="3" style="stroke:#038048;stroke-width:1.0;"/><text fill="#000000" font-family="sans-serif" font-size="11" lengthAdjust="spacing" textLength="103" x="526.5" y="298.2104">State(State state)</text><ellipse cx="517.5" cy="307.8047" fill="#84BE84" rx="3" ry="3" style="stroke:#038048;stroke-width:1.0;"/><text fill="#000000" font-family="sans-serif" font-size="11" lengthAdjust="spacing" textLength="139" x="526.5" y="311.0151">makeMove(Move move)</text><ellipse cx="517.5" cy="320.6094" fill="#84BE84" rx="3" ry="3" style="stroke:#038048;stroke-width:1.0;"/><text fill="#000000" font-family="sans-serif" font-size="11" lengthAdjust="spacing" textLength="127" x="526.5" y="323.8198">isFinished() : EndState</text><ellipse cx="517.5" cy="333.4141" fill="#84BE84" rx="3" ry="3" style="stroke:#038048;stroke-width:1.0;"/><text fill="#000000" font-family="sans-serif" font-size="11" lengthAdjust="spacing" textLength="147" x="526.5" y="336.6245">availableMoves() : Move[]</text><!--MD5=[eb0e61aa3a7a98c31d3c64e538caa430]
class PancakeState--><rect codeLine="10" fill="#FEFECE" filter="url(#f13ve2rodvyiqp)" height="124.8281" id="PancakeState" style="stroke:#A80036;stroke-width:1.5;" width="223" x="398.5" y="433"/><ellipse cx="465.75" cy="449" fill="#ADD1B2" rx="11" ry="11" style="stroke:#A80036;stroke-width:1.0;"/><path d="M468.0938,444.6719 C467.1563,444.2344 466.5625,444.0938 465.6875,444.0938 C463.0625,444.0938 461.0625,446.1719 461.0625,448.8906 L461.0625,450.0156 C461.0625,452.5938 463.1719,454.4844 466.0625,454.4844 C467.2813,454.4844 468.4375,454.1875 469.1875,453.6406 C469.7656,453.2344 470.0938,452.7813 470.0938,452.3906 C470.0938,451.9375 469.7031,451.5469 469.2344,451.5469 C469.0156,451.5469 468.8125,451.625 468.625,451.8125 C468.1719,452.2969 468.1719,452.2969 467.9844,452.3906 C467.5625,452.6563 466.875,452.7813 466.1094,452.7813 C464.0625,452.7813 462.7656,451.6875 462.7656,449.9844 L462.7656,448.8906 C462.7656,447.1094 464.0156,445.7969 465.75,445.7969 C466.3281,445.7969 466.9375,445.9531 467.4063,446.2031 C467.8906,446.4844 468.0625,446.7031 468.1563,447.1094 C468.2188,447.5156 468.25,447.6406 468.3906,447.7656 C468.5313,447.9063 468.7656,448.0156 468.9844,448.0156 C469.25,448.0156 469.5156,447.875 469.6875,447.6563 C469.7969,447.5 469.8281,447.3125 469.8281,446.8906 L469.8281,445.4688 C469.8281,445.0313 469.8125,444.9063 469.7188,444.75 C469.5625,444.4844 469.2813,444.3438 468.9844,444.3438 C468.6875,444.3438 468.4844,444.4375 468.2656,444.75 L468.0938,444.6719 Z " fill="#000000"/><text fill="#000000" font-family="sans-serif" font-size="12" lengthAdjust="spacing" textLength="80" x="486.25" y="453.1543">PancakeState</text><line style="stroke:#A80036;stroke-width:1.5;" x1="399.5" x2="620.5" y1="465" y2="465"/><rect fill="none" height="6" style="stroke:#C82930;stroke-width:1.0;" width="6" x="406.5" y="473"/><text fill="#000000" font-family="sans-serif" font-size="11" lengthAdjust="spacing" textLength="61" x="418.5" y="479.2104">player : int</text><rect fill="none" height="6" style="stroke:#C82930;stroke-width:1.0;" width="6" x="406.5" y="485.8047"/><text fill="#000000" font-family="sans-serif" font-size="11" lengthAdjust="spacing" textLength="83" x="418.5" y="492.0151">board : char[][]</text><line style="stroke:#A80036;stroke-width:1.5;" x1="399.5" x2="620.5" y1="498.6094" y2="498.6094"/><ellipse cx="409.5" cy="509.6094" fill="#84BE84" rx="3" ry="3" style="stroke:#038048;stroke-width:1.0;"/><text fill="#000000" font-family="sans-serif" font-size="11" lengthAdjust="spacing" textLength="197" x="418.5" y="512.8198">PancakeState(PancakeState state)</text><ellipse cx="409.5" cy="522.4141" fill="#84BE84" rx="3" ry="3" style="stroke:#038048;stroke-width:1.0;"/><text fill="#000000" font-family="sans-serif" font-size="11" lengthAdjust="spacing" textLength="139" x="418.5" y="525.6245">makeMove(Move move)</text><ellipse cx="409.5" cy="535.2188" fill="#84BE84" rx="3" ry="3" style="stroke:#038048;stroke-width:1.0;"/><text fill="#000000" font-family="sans-serif" font-size="11" lengthAdjust="spacing" textLength="127" x="418.5" y="538.4292">isFinished() : EndState</text><ellipse cx="409.5" cy="548.0234" fill="#84BE84" rx="3" ry="3" style="stroke:#038048;stroke-width:1.0;"/><text fill="#000000" font-family="sans-serif" font-size="11" lengthAdjust="spacing" textLength="147" x="418.5" y="551.2339">availableMoves() : Move[]</text><!--MD5=[1981719fa3982d92ef7fd3f06d73b3e7]
class Move--><rect codeLine="19" fill="#FEFECE" filter="url(#f13ve2rodvyiqp)" height="73.6094" id="Move" style="stroke:#A80036;stroke-width:1.5;" width="92" x="588" y="90"/><ellipse cx="615.15" cy="106" fill="#ADD1B2" rx="11" ry="11" style="stroke:#A80036;stroke-width:1.0;"/><path d="M617.4938,101.6719 C616.5563,101.2344 615.9625,101.0938 615.0875,101.0938 C612.4625,101.0938 610.4625,103.1719 610.4625,105.8906 L610.4625,107.0156 C610.4625,109.5938 612.5719,111.4844 615.4625,111.4844 C616.6813,111.4844 617.8375,111.1875 618.5875,110.6406 C619.1656,110.2344 619.4938,109.7813 619.4938,109.3906 C619.4938,108.9375 619.1031,108.5469 618.6344,108.5469 C618.4156,108.5469 618.2125,108.625 618.025,108.8125 C617.5719,109.2969 617.5719,109.2969 617.3844,109.3906 C616.9625,109.6563 616.275,109.7813 615.5094,109.7813 C613.4625,109.7813 612.1656,108.6875 612.1656,106.9844 L612.1656,105.8906 C612.1656,104.1094 613.4156,102.7969 615.15,102.7969 C615.7281,102.7969 616.3375,102.9531 616.8063,103.2031 C617.2906,103.4844 617.4625,103.7031 617.5563,104.1094 C617.6188,104.5156 617.65,104.6406 617.7906,104.7656 C617.9313,104.9063 618.1656,105.0156 618.3844,105.0156 C618.65,105.0156 618.9156,104.875 619.0875,104.6563 C619.1969,104.5 619.2281,104.3125 619.2281,103.8906 L619.2281,102.4688 C619.2281,102.0313 619.2125,101.9063 619.1188,101.75 C618.9625,101.4844 618.6813,101.3438 618.3844,101.3438 C618.0875,101.3438 617.8844,101.4375 617.6656,101.75 L617.4938,101.6719 Z " fill="#000000"/><text fill="#000000" font-family="sans-serif" font-size="12" lengthAdjust="spacing" textLength="33" x="631.85" y="110.1543">Move</text><line style="stroke:#A80036;stroke-width:1.5;" x1="589" x2="679" y1="122" y2="122"/><rect fill="none" height="6" style="stroke:#C82930;stroke-width:1.0;" width="6" x="596" y="130"/><text fill="#000000" font-family="sans-serif" font-size="11" lengthAdjust="spacing" textLength="45" x="608" y="136.2104">row : int</text><rect fill="none" height="6" style="stroke:#C82930;stroke-width:1.0;" width="6" x="596" y="142.8047"/><text fill="#000000" font-family="sans-serif" font-size="11" lengthAdjust="spacing" textLength="66" x="608" y="149.0151">column : int</text><line style="stroke:#A80036;stroke-width:1.5;" x1="589" x2="679" y1="155.6094" y2="155.6094"/><!--MD5=[b6dcce5e5ef3c84b0b048d11301373dd]
class Game--><rect codeLine="24" fill="#FEFECE" filter="url(#f13ve2rodvyiqp)" height="86.4141" id="Game" style="stroke:#A80036;stroke-width:1.5;" width="147" x="405.5" y="84"/><ellipse cx="457.25" cy="100" fill="#B4A7E5" rx="11" ry="11" style="stroke:#A80036;stroke-width:1.0;"/><path d="M458.2031,96.7813 L459.9219,96.7813 C460.3125,96.7813 460.5,96.75 460.625,96.6719 C460.8906,96.5156 461.0313,96.2344 461.0313,95.9375 C461.0313,95.6719 460.9219,95.4063 460.6875,95.2344 C460.5156,95.125 460.375,95.0938 459.9219,95.0938 L454.7813,95.0938 C454.3438,95.0938 454.2188,95.1094 454.0625,95.2031 C453.8125,95.3594 453.6563,95.6563 453.6563,95.9375 C453.6563,96.2188 453.7969,96.4688 454.0156,96.6406 C454.1719,96.75 454.3594,96.7813 454.7813,96.7813 L456.5,96.7813 L456.5,103.2969 L454.7813,103.2969 C454.3438,103.2969 454.2188,103.3125 454.0625,103.4219 C453.8125,103.5781 453.6563,103.8594 453.6563,104.1563 C453.6563,104.4063 453.7969,104.6719 454.0156,104.8281 C454.1719,104.9531 454.375,105 454.7813,105 L459.9219,105 C460.6719,105 461.0313,104.7188 461.0313,104.1563 C461.0313,103.875 460.9219,103.625 460.6875,103.4531 C460.5156,103.3281 460.375,103.2969 459.9219,103.2969 L458.2031,103.2969 L458.2031,96.7813 Z " fill="#000000"/><text fill="#000000" font-family="sans-serif" font-size="12" font-style="italic" lengthAdjust="spacing" textLength="35" x="477.75" y="104.1543">Game</text><line style="stroke:#A80036;stroke-width:1.5;" x1="406.5" x2="551.5" y1="116" y2="116"/><line style="stroke:#A80036;stroke-width:1.5;" x1="406.5" x2="551.5" y1="124" y2="124"/><ellipse cx="416.5" cy="135" fill="#84BE84" rx="3" ry="3" style="stroke:#038048;stroke-width:1.0;"/><text fill="#000000" font-family="sans-serif" font-size="11" lengthAdjust="spacing" textLength="25" x="425.5" y="138.2104">init()</text><ellipse cx="416.5" cy="147.8047" fill="#84BE84" rx="3" ry="3" style="stroke:#038048;stroke-width:1.0;"/><text fill="#000000" font-family="sans-serif" font-size="11" lengthAdjust="spacing" textLength="121" x="425.5" y="151.0151">isFinished() : boolean</text><ellipse cx="416.5" cy="160.6094" fill="#84BE84" rx="3" ry="3" style="stroke:#038048;stroke-width:1.0;"/><text fill="#000000" font-family="sans-serif" font-size="11" lengthAdjust="spacing" textLength="52" x="425.5" y="163.8198">evolve ()</text><!--MD5=[775045053f812ae58d7cf730bb18f7f2]
class PancakeGame--><rect codeLine="30" fill="#FEFECE" filter="url(#f13ve2rodvyiqp)" height="124.8281" id="PancakeGame" style="stroke:#A80036;stroke-width:1.5;" width="147" x="324.5" y="231"/><ellipse cx="353.45" cy="247" fill="#ADD1B2" rx="11" ry="11" style="stroke:#A80036;stroke-width:1.0;"/><path d="M355.7938,242.6719 C354.8563,242.2344 354.2625,242.0938 353.3875,242.0938 C350.7625,242.0938 348.7625,244.1719 348.7625,246.8906 L348.7625,248.0156 C348.7625,250.5938 350.8719,252.4844 353.7625,252.4844 C354.9813,252.4844 356.1375,252.1875 356.8875,251.6406 C357.4656,251.2344 357.7938,250.7813 357.7938,250.3906 C357.7938,249.9375 357.4031,249.5469 356.9344,249.5469 C356.7156,249.5469 356.5125,249.625 356.325,249.8125 C355.8719,250.2969 355.8719,250.2969 355.6844,250.3906 C355.2625,250.6563 354.575,250.7813 353.8094,250.7813 C351.7625,250.7813 350.4656,249.6875 350.4656,247.9844 L350.4656,246.8906 C350.4656,245.1094 351.7156,243.7969 353.45,243.7969 C354.0281,243.7969 354.6375,243.9531 355.1063,244.2031 C355.5906,244.4844 355.7625,244.7031 355.8563,245.1094 C355.9188,245.5156 355.95,245.6406 356.0906,245.7656 C356.2313,245.9063 356.4656,246.0156 356.6844,246.0156 C356.95,246.0156 357.2156,245.875 357.3875,245.6563 C357.4969,245.5 357.5281,245.3125 357.5281,244.8906 L357.5281,243.4688 C357.5281,243.0313 357.5125,242.9063 357.4188,242.75 C357.2625,242.4844 356.9813,242.3438 356.6844,242.3438 C356.3875,242.3438 356.1844,242.4375 355.9656,242.75 L355.7938,242.6719 Z " fill="#000000"/><text fill="#000000" font-family="sans-serif" font-size="12" lengthAdjust="spacing" textLength="84" x="370.55" y="251.1543">PancakeGame</text><line style="stroke:#A80036;stroke-width:1.5;" x1="325.5" x2="470.5" y1="263" y2="263"/><line style="stroke:#A80036;stroke-width:1.5;" x1="325.5" x2="470.5" y1="271" y2="271"/><ellipse cx="335.5" cy="282" fill="#84BE84" rx="3" ry="3" style="stroke:#038048;stroke-width:1.0;"/><text fill="#000000" font-family="sans-serif" font-size="11" lengthAdjust="spacing" textLength="25" x="344.5" y="285.2104">init()</text><ellipse cx="335.5" cy="294.8047" fill="#84BE84" rx="3" ry="3" style="stroke:#038048;stroke-width:1.0;"/><text fill="#000000" font-family="sans-serif" font-size="11" lengthAdjust="spacing" textLength="121" x="344.5" y="298.0151">isFinished() : boolean</text><ellipse cx="335.5" cy="307.6094" fill="#84BE84" rx="3" ry="3" style="stroke:#038048;stroke-width:1.0;"/><text fill="#000000" font-family="sans-serif" font-size="11" lengthAdjust="spacing" textLength="52" x="344.5" y="310.8198">evolve ()</text><rect fill="#F24D5C" height="6" style="stroke:#C82930;stroke-width:1.0;" width="6" x="332.5" y="317.4141"/><text fill="#000000" font-family="sans-serif" font-size="11" lengthAdjust="spacing" textLength="81" x="344.5" y="323.6245">displayBoard()</text><rect fill="#F24D5C" height="6" style="stroke:#C82930;stroke-width:1.0;" width="6" x="332.5" y="330.2188"/><text fill="#000000" font-family="sans-serif" font-size="11" lengthAdjust="spacing" textLength="117" x="344.5" y="336.4292">playerMove() : Move</text><rect fill="#F24D5C" height="6" style="stroke:#C82930;stroke-width:1.0;" width="6" x="332.5" y="343.0234"/><text fill="#000000" font-family="sans-serif" font-size="11" lengthAdjust="spacing" textLength="92" x="344.5" y="349.2339">AIMove() : Move</text><!--MD5=[ecbec5e4f2b5e5d4c18f599ff884d62e]
class EndState--><rect codeLine="39" fill="#FEFECE" filter="url(#f13ve2rodvyiqp)" height="60.8047" id="EndState" style="stroke:#A80036;stroke-width:1.5;" width="314" x="56" y="96.5"/><ellipse cx="182.25" cy="112.5" fill="#EB937F" rx="11" ry="11" style="stroke:#A80036;stroke-width:1.0;"/><path d="M181.0469,113.375 L182.5,113.375 L182.5,113.4844 C182.5,113.8906 182.5313,114.0469 182.6094,114.2031 C182.7656,114.4531 183.0469,114.6094 183.3438,114.6094 C183.5938,114.6094 183.8594,114.4688 184.0156,114.25 C184.1406,114.0938 184.1719,113.9375 184.1719,113.4844 L184.1719,111.5625 C184.1719,111.4063 184.1719,111.3594 184.1563,111.2031 C184.0938,110.7344 183.7813,110.4219 183.3281,110.4219 C183.0781,110.4219 182.8125,110.5625 182.6406,110.7813 C182.5313,110.9531 182.5,111.1094 182.5,111.5625 L182.5,111.6875 L181.0469,111.6875 L181.0469,109.2813 L185.0313,109.2813 L185.0313,110.1406 C185.0313,110.5469 185.0625,110.7188 185.1406,110.875 C185.3125,111.125 185.5938,111.2813 185.875,111.2813 C186.1406,111.2813 186.4063,111.1406 186.5781,110.9219 C186.6875,110.75 186.7188,110.6094 186.7188,110.1406 L186.7188,107.5938 L179.0938,107.5938 C178.6563,107.5938 178.5313,107.6094 178.375,107.7031 C178.125,107.8594 177.9688,108.1563 177.9688,108.4375 C177.9688,108.7188 178.1094,108.9688 178.3281,109.1406 C178.4844,109.25 178.6719,109.2813 179.0938,109.2813 L179.3438,109.2813 L179.3438,115.7969 L179.0938,115.7969 C178.6875,115.7969 178.5313,115.8125 178.375,115.9219 C178.125,116.0938 177.9688,116.3594 177.9688,116.6563 C177.9688,116.9219 178.1094,117.1719 178.3281,117.3281 C178.4688,117.4531 178.7031,117.5 179.0938,117.5 L187.0938,117.5 L187.0938,114.9219 C187.0938,114.4844 187.0625,114.3438 186.9844,114.1875 C186.8125,113.9375 186.5313,113.7813 186.25,113.7813 C185.9844,113.7813 185.7188,113.8906 185.5469,114.1406 C185.4375,114.2969 185.4063,114.4375 185.4063,114.9219 L185.4063,115.7969 L181.0469,115.7969 L181.0469,113.375 Z " fill="#000000"/><text fill="#000000" font-family="sans-serif" font-size="12" lengthAdjust="spacing" textLength="53" x="202.75" y="116.6543">EndState</text><line style="stroke:#A80036;stroke-width:1.5;" x1="57" x2="369" y1="128.5" y2="128.5"/><text fill="#000000" font-family="sans-serif" font-size="11" lengthAdjust="spacing" textLength="302" x="62" y="142.7104">NOT_FINISHED, PLAYER2_WON, PLAYER1_WON, DRAW</text><line style="stroke:#A80036;stroke-width:1.5;" x1="57" x2="369" y1="149.3047" y2="149.3047"/><!--MD5=[2cb47ba637a0d19583e6199456f6ad0b]
class Player--><rect codeLine="45" fill="#FEFECE" filter="url(#f13ve2rodvyiqp)" height="60.8047" id="Player" style="stroke:#A80036;stroke-width:1.5;" width="68" x="742" y="465"/><ellipse cx="757" cy="481" fill="#B4A7E5" rx="11" ry="11" style="stroke:#A80036;stroke-width:1.0;"/><path d="M757.9531,477.7813 L759.6719,477.7813 C760.0625,477.7813 760.25,477.75 760.375,477.6719 C760.6406,477.5156 760.7813,477.2344 760.7813,476.9375 C760.7813,476.6719 760.6719,476.4063 760.4375,476.2344 C760.2656,476.125 760.125,476.0938 759.6719,476.0938 L754.5313,476.0938 C754.0938,476.0938 753.9688,476.1094 753.8125,476.2031 C753.5625,476.3594 753.4063,476.6563 753.4063,476.9375 C753.4063,477.2188 753.5469,477.4688 753.7656,477.6406 C753.9219,477.75 754.1094,477.7813 754.5313,477.7813 L756.25,477.7813 L756.25,484.2969 L754.5313,484.2969 C754.0938,484.2969 753.9688,484.3125 753.8125,484.4219 C753.5625,484.5781 753.4063,484.8594 753.4063,485.1563 C753.4063,485.4063 753.5469,485.6719 753.7656,485.8281 C753.9219,485.9531 754.125,486 754.5313,486 L759.6719,486 C760.4219,486 760.7813,485.7188 760.7813,485.1563 C760.7813,484.875 760.6719,484.625 760.4375,484.4531 C760.2656,484.3281 760.125,484.2969 759.6719,484.2969 L757.9531,484.2969 L757.9531,477.7813 Z " fill="#000000"/><text fill="#000000" font-family="sans-serif" font-size="12" font-style="italic" lengthAdjust="spacing" textLength="36" x="771" y="485.1543">Player</text><line style="stroke:#A80036;stroke-width:1.5;" x1="743" x2="809" y1="497" y2="497"/><line style="stroke:#A80036;stroke-width:1.5;" x1="743" x2="809" y1="505" y2="505"/><ellipse cx="753" cy="516" fill="#84BE84" rx="3" ry="3" style="stroke:#038048;stroke-width:1.0;"/><text fill="#000000" font-family="sans-serif" font-size="11" lengthAdjust="spacing" textLength="32" x="762" y="519.2104">play()</text><!--MD5=[c9258217e9bf77cef15858c9efd4d2a2]
class HumanPlayer--><rect codeLine="49" fill="#FEFECE" filter="url(#f13ve2rodvyiqp)" height="60.8047" id="HumanPlayer" style="stroke:#A80036;stroke-width:1.5;" width="109" x="736.5" y="670.5"/><ellipse cx="751.5" cy="686.5" fill="#ADD1B2" rx="11" ry="11" style="stroke:#A80036;stroke-width:1.0;"/><path d="M753.8438,682.1719 C752.9063,681.7344 752.3125,681.5938 751.4375,681.5938 C748.8125,681.5938 746.8125,683.6719 746.8125,686.3906 L746.8125,687.5156 C746.8125,690.0938 748.9219,691.9844 751.8125,691.9844 C753.0313,691.9844 754.1875,691.6875 754.9375,691.1406 C755.5156,690.7344 755.8438,690.2813 755.8438,689.8906 C755.8438,689.4375 755.4531,689.0469 754.9844,689.0469 C754.7656,689.0469 754.5625,689.125 754.375,689.3125 C753.9219,689.7969 753.9219,689.7969 753.7344,689.8906 C753.3125,690.1563 752.625,690.2813 751.8594,690.2813 C749.8125,690.2813 748.5156,689.1875 748.5156,687.4844 L748.5156,686.3906 C748.5156,684.6094 749.7656,683.2969 751.5,683.2969 C752.0781,683.2969 752.6875,683.4531 753.1563,683.7031 C753.6406,683.9844 753.8125,684.2031 753.9063,684.6094 C753.9688,685.0156 754,685.1406 754.1406,685.2656 C754.2813,685.4063 754.5156,685.5156 754.7344,685.5156 C755,685.5156 755.2656,685.375 755.4375,685.1563 C755.5469,685 755.5781,684.8125 755.5781,684.3906 L755.5781,682.9688 C755.5781,682.5313 755.5625,682.4063 755.4688,682.25 C755.3125,681.9844 755.0313,681.8438 754.7344,681.8438 C754.4375,681.8438 754.2344,681.9375 754.0156,682.25 L753.8438,682.1719 Z " fill="#000000"/><text fill="#000000" font-family="sans-serif" font-size="12" lengthAdjust="spacing" textLength="77" x="765.5" y="690.6543">HumanPlayer</text><line style="stroke:#A80036;stroke-width:1.5;" x1="737.5" x2="844.5" y1="702.5" y2="702.5"/><line style="stroke:#A80036;stroke-width:1.5;" x1="737.5" x2="844.5" y1="710.5" y2="710.5"/><ellipse cx="747.5" cy="721.5" fill="#84BE84" rx="3" ry="3" style="stroke:#038048;stroke-width:1.0;"/><text fill="#000000" font-family="sans-serif" font-size="11" lengthAdjust="spacing" textLength="32" x="756.5" y="724.7104">play()</text><!--MD5=[5c13a6b9b37a04a5203ceba06b20c3e3]
class AIPlayer--><rect codeLine="53" fill="#FEFECE" filter="url(#f13ve2rodvyiqp)" height="60.8047" id="AIPlayer" style="stroke:#A80036;stroke-width:1.5;" width="79" x="880.5" y="670.5"/><ellipse cx="895.5" cy="686.5" fill="#ADD1B2" rx="11" ry="11" style="stroke:#A80036;stroke-width:1.0;"/><path d="M897.8438,682.1719 C896.9063,681.7344 896.3125,681.5938 895.4375,681.5938 C892.8125,681.5938 890.8125,683.6719 890.8125,686.3906 L890.8125,687.5156 C890.8125,690.0938 892.9219,691.9844 895.8125,691.9844 C897.0313,691.9844 898.1875,691.6875 898.9375,691.1406 C899.5156,690.7344 899.8438,690.2813 899.8438,689.8906 C899.8438,689.4375 899.4531,689.0469 898.9844,689.0469 C898.7656,689.0469 898.5625,689.125 898.375,689.3125 C897.9219,689.7969 897.9219,689.7969 897.7344,689.8906 C897.3125,690.1563 896.625,690.2813 895.8594,690.2813 C893.8125,690.2813 892.5156,689.1875 892.5156,687.4844 L892.5156,686.3906 C892.5156,684.6094 893.7656,683.2969 895.5,683.2969 C896.0781,683.2969 896.6875,683.4531 897.1563,683.7031 C897.6406,683.9844 897.8125,684.2031 897.9063,684.6094 C897.9688,685.0156 898,685.1406 898.1406,685.2656 C898.2813,685.4063 898.5156,685.5156 898.7344,685.5156 C899,685.5156 899.2656,685.375 899.4375,685.1563 C899.5469,685 899.5781,684.8125 899.5781,684.3906 L899.5781,682.9688 C899.5781,682.5313 899.5625,682.4063 899.4688,682.25 C899.3125,681.9844 899.0313,681.8438 898.7344,681.8438 C898.4375,681.8438 898.2344,681.9375 898.0156,682.25 L897.8438,682.1719 Z " fill="#000000"/><text fill="#000000" font-family="sans-serif" font-size="12" lengthAdjust="spacing" textLength="47" x="909.5" y="690.6543">AIPlayer</text><line style="stroke:#A80036;stroke-width:1.5;" x1="881.5" x2="958.5" y1="702.5" y2="702.5"/><line style="stroke:#A80036;stroke-width:1.5;" x1="881.5" x2="958.5" y1="710.5" y2="710.5"/><ellipse cx="891.5" cy="721.5" fill="#84BE84" rx="3" ry="3" style="stroke:#038048;stroke-width:1.0;"/><text fill="#000000" font-family="sans-serif" font-size="11" lengthAdjust="spacing" textLength="32" x="900.5" y="724.7104">play()</text><!--MD5=[01f663fae860460593a83c4c4f1a7cd2]
class AIStrategy--><rect codeLine="58" fill="#FEFECE" filter="url(#f13ve2rodvyiqp)" height="60.8047" id="AIStrategy" style="stroke:#A80036;stroke-width:1.5;" width="217" x="992.5" y="840"/><ellipse cx="1064.75" cy="856" fill="#B4A7E5" rx="11" ry="11" style="stroke:#A80036;stroke-width:1.0;"/><path d="M1065.7031,852.7813 L1067.4219,852.7813 C1067.8125,852.7813 1068,852.75 1068.125,852.6719 C1068.3906,852.5156 1068.5313,852.2344 1068.5313,851.9375 C1068.5313,851.6719 1068.4219,851.4063 1068.1875,851.2344 C1068.0156,851.125 1067.875,851.0938 1067.4219,851.0938 L1062.2813,851.0938 C1061.8438,851.0938 1061.7188,851.1094 1061.5625,851.2031 C1061.3125,851.3594 1061.1563,851.6563 1061.1563,851.9375 C1061.1563,852.2188 1061.2969,852.4688 1061.5156,852.6406 C1061.6719,852.75 1061.8594,852.7813 1062.2813,852.7813 L1064,852.7813 L1064,859.2969 L1062.2813,859.2969 C1061.8438,859.2969 1061.7188,859.3125 1061.5625,859.4219 C1061.3125,859.5781 1061.1563,859.8594 1061.1563,860.1563 C1061.1563,860.4063 1061.2969,860.6719 1061.5156,860.8281 C1061.6719,860.9531 1061.875,861 1062.2813,861 L1067.4219,861 C1068.1719,861 1068.5313,860.7188 1068.5313,860.1563 C1068.5313,859.875 1068.4219,859.625 1068.1875,859.4531 C1068.0156,859.3281 1067.875,859.2969 1067.4219,859.2969 L1065.7031,859.2969 L1065.7031,852.7813 Z " fill="#000000"/><text fill="#000000" font-family="sans-serif" font-size="12" font-style="italic" lengthAdjust="spacing" textLength="64" x="1085.25" y="860.1543">AIStrategy</text><line style="stroke:#A80036;stroke-width:1.5;" x1="993.5" x2="1208.5" y1="872" y2="872"/><line style="stroke:#A80036;stroke-width:1.5;" x1="993.5" x2="1208.5" y1="880" y2="880"/><ellipse cx="1003.5" cy="891" fill="#84BE84" rx="3" ry="3" style="stroke:#038048;stroke-width:1.0;"/><text fill="#000000" font-family="sans-serif" font-size="11" lengthAdjust="spacing" textLength="191" x="1012.5" y="894.2104">getNextMove(State state) : Move</text><!--MD5=[19040248ed4380354659c4757b382490]
class MCTS--><rect codeLine="62" fill="#FEFECE" filter="url(#f13ve2rodvyiqp)" height="86.4141" id="MCTS" style="stroke:#A80036;stroke-width:1.5;" width="217" x="994.5" y="658"/><ellipse cx="1082.25" cy="674" fill="#ADD1B2" rx="11" ry="11" style="stroke:#A80036;stroke-width:1.0;"/><path d="M1084.5938,669.6719 C1083.6563,669.2344 1083.0625,669.0938 1082.1875,669.0938 C1079.5625,669.0938 1077.5625,671.1719 1077.5625,673.8906 L1077.5625,675.0156 C1077.5625,677.5938 1079.6719,679.4844 1082.5625,679.4844 C1083.7813,679.4844 1084.9375,679.1875 1085.6875,678.6406 C1086.2656,678.2344 1086.5938,677.7813 1086.5938,677.3906 C1086.5938,676.9375 1086.2031,676.5469 1085.7344,676.5469 C1085.5156,676.5469 1085.3125,676.625 1085.125,676.8125 C1084.6719,677.2969 1084.6719,677.2969 1084.4844,677.3906 C1084.0625,677.6563 1083.375,677.7813 1082.6094,677.7813 C1080.5625,677.7813 1079.2656,676.6875 1079.2656,674.9844 L1079.2656,673.8906 C1079.2656,672.1094 1080.5156,670.7969 1082.25,670.7969 C1082.8281,670.7969 1083.4375,670.9531 1083.9063,671.2031 C1084.3906,671.4844 1084.5625,671.7031 1084.6563,672.1094 C1084.7188,672.5156 1084.75,672.6406 1084.8906,672.7656 C1085.0313,672.9063 1085.2656,673.0156 1085.4844,673.0156 C1085.75,673.0156 1086.0156,672.875 1086.1875,672.6563 C1086.2969,672.5 1086.3281,672.3125 1086.3281,671.8906 L1086.3281,670.4688 C1086.3281,670.0313 1086.3125,669.9063 1086.2188,669.75 C1086.0625,669.4844 1085.7813,669.3438 1085.4844,669.3438 C1085.1875,669.3438 1084.9844,669.4375 1084.7656,669.75 L1084.5938,669.6719 Z " fill="#000000"/><text fill="#000000" font-family="sans-serif" font-size="12" lengthAdjust="spacing" textLength="33" x="1102.75" y="678.1543">MCTS</text><line style="stroke:#A80036;stroke-width:1.5;" x1="995.5" x2="1210.5" y1="690" y2="690"/><rect fill="none" height="6" style="stroke:#C82930;stroke-width:1.0;" width="6" x="1002.5" y="698"/><text fill="#000000" font-family="sans-serif" font-size="11" lengthAdjust="spacing" textLength="51" x="1014.5" y="704.2104">time : int</text><line style="stroke:#A80036;stroke-width:1.5;" x1="995.5" x2="1210.5" y1="710.8047" y2="710.8047"/><ellipse cx="1005.5" cy="721.8047" fill="#84BE84" rx="3" ry="3" style="stroke:#038048;stroke-width:1.0;"/><text fill="#000000" font-family="sans-serif" font-size="11" lengthAdjust="spacing" textLength="191" x="1014.5" y="725.0151">getNextMove(State state) : Move</text><ellipse cx="1005.5" cy="734.6094" fill="#84BE84" rx="3" ry="3" style="stroke:#038048;stroke-width:1.0;"/><text fill="#000000" font-family="sans-serif" font-size="11" lengthAdjust="spacing" textLength="55" x="1014.5" y="737.8198">setTime()</text><!--MD5=[9a71df6e099bddd8b34726d798b0912c]
class MoveTree--><rect codeLine="72" fill="#FEFECE" filter="url(#f13ve2rodvyiqp)" height="99.2188" id="MoveTree" style="stroke:#A80036;stroke-width:1.5;" width="212" x="1245" y="821"/><ellipse cx="1316.25" cy="837" fill="#ADD1B2" rx="11" ry="11" style="stroke:#A80036;stroke-width:1.0;"/><path d="M1318.5938,832.6719 C1317.6563,832.2344 1317.0625,832.0938 1316.1875,832.0938 C1313.5625,832.0938 1311.5625,834.1719 1311.5625,836.8906 L1311.5625,838.0156 C1311.5625,840.5938 1313.6719,842.4844 1316.5625,842.4844 C1317.7813,842.4844 1318.9375,842.1875 1319.6875,841.6406 C1320.2656,841.2344 1320.5938,840.7813 1320.5938,840.3906 C1320.5938,839.9375 1320.2031,839.5469 1319.7344,839.5469 C1319.5156,839.5469 1319.3125,839.625 1319.125,839.8125 C1318.6719,840.2969 1318.6719,840.2969 1318.4844,840.3906 C1318.0625,840.6563 1317.375,840.7813 1316.6094,840.7813 C1314.5625,840.7813 1313.2656,839.6875 1313.2656,837.9844 L1313.2656,836.8906 C1313.2656,835.1094 1314.5156,833.7969 1316.25,833.7969 C1316.8281,833.7969 1317.4375,833.9531 1317.9063,834.2031 C1318.3906,834.4844 1318.5625,834.7031 1318.6563,835.1094 C1318.7188,835.5156 1318.75,835.6406 1318.8906,835.7656 C1319.0313,835.9063 1319.2656,836.0156 1319.4844,836.0156 C1319.75,836.0156 1320.0156,835.875 1320.1875,835.6563 C1320.2969,835.5 1320.3281,835.3125 1320.3281,834.8906 L1320.3281,833.4688 C1320.3281,833.0313 1320.3125,832.9063 1320.2188,832.75 C1320.0625,832.4844 1319.7813,832.3438 1319.4844,832.3438 C1319.1875,832.3438 1318.9844,832.4375 1318.7656,832.75 L1318.5938,832.6719 Z " fill="#000000"/><text fill="#000000" font-family="sans-serif" font-size="12" lengthAdjust="spacing" textLength="61" x="1336.75" y="841.1543">MoveTree</text><line style="stroke:#A80036;stroke-width:1.5;" x1="1246" x2="1456" y1="853" y2="853"/><rect fill="none" height="6" style="stroke:#C82930;stroke-width:1.0;" width="6" x="1253" y="861"/><text fill="#000000" font-family="sans-serif" font-size="11" lengthAdjust="spacing" textLength="150" x="1265" y="867.2104">List&lt;MoveTree&gt; childrens</text><rect fill="none" height="6" style="stroke:#C82930;stroke-width:1.0;" width="6" x="1253" y="873.8047"/><text fill="#000000" font-family="sans-serif" font-size="11" lengthAdjust="spacing" textLength="51" x="1265" y="880.0151">int depth</text><line style="stroke:#A80036;stroke-width:1.5;" x1="1246" x2="1456" y1="886.6094" y2="886.6094"/><ellipse cx="1256" cy="897.6094" fill="#84BE84" rx="3" ry="3" style="stroke:#038048;stroke-width:1.0;"/><text fill="#000000" font-family="sans-serif" font-size="11" lengthAdjust="spacing" textLength="177" x="1265" y="900.8198">iterator() : Iterator&lt;MoveTree&gt;</text><ellipse cx="1256" cy="910.4141" fill="#84BE84" rx="3" ry="3" style="stroke:#038048;stroke-width:1.0;"/><text fill="#000000" font-family="sans-serif" font-size="11" lengthAdjust="spacing" textLength="186" x="1265" y="913.6245">getChildrens() : List&lt;MoveTree&gt;</text><!--MD5=[bb7f1c801adcc1c297b2d9190618259c]
class Tree--><rect codeLine="79" fill="#FEFECE" filter="url(#f13ve2rodvyiqp)" height="73.6094" id="Tree" style="stroke:#A80036;stroke-width:1.5;" width="181" x="1246.5" y="664"/><ellipse cx="1319.75" cy="680" fill="#B4A7E5" rx="11" ry="11" style="stroke:#A80036;stroke-width:1.0;"/><path d="M1320.7031,676.7813 L1322.4219,676.7813 C1322.8125,676.7813 1323,676.75 1323.125,676.6719 C1323.3906,676.5156 1323.5313,676.2344 1323.5313,675.9375 C1323.5313,675.6719 1323.4219,675.4063 1323.1875,675.2344 C1323.0156,675.125 1322.875,675.0938 1322.4219,675.0938 L1317.2813,675.0938 C1316.8438,675.0938 1316.7188,675.1094 1316.5625,675.2031 C1316.3125,675.3594 1316.1563,675.6563 1316.1563,675.9375 C1316.1563,676.2188 1316.2969,676.4688 1316.5156,676.6406 C1316.6719,676.75 1316.8594,676.7813 1317.2813,676.7813 L1319,676.7813 L1319,683.2969 L1317.2813,683.2969 C1316.8438,683.2969 1316.7188,683.3125 1316.5625,683.4219 C1316.3125,683.5781 1316.1563,683.8594 1316.1563,684.1563 C1316.1563,684.4063 1316.2969,684.6719 1316.5156,684.8281 C1316.6719,684.9531 1316.875,685 1317.2813,685 L1322.4219,685 C1323.1719,685 1323.5313,684.7188 1323.5313,684.1563 C1323.5313,683.875 1323.4219,683.625 1323.1875,683.4531 C1323.0156,683.3281 1322.875,683.2969 1322.4219,683.2969 L1320.7031,683.2969 L1320.7031,676.7813 Z " fill="#000000"/><text fill="#000000" font-family="sans-serif" font-size="12" font-style="italic" lengthAdjust="spacing" textLength="26" x="1340.25" y="684.1543">Tree</text><line style="stroke:#A80036;stroke-width:1.5;" x1="1247.5" x2="1426.5" y1="696" y2="696"/><line style="stroke:#A80036;stroke-width:1.5;" x1="1247.5" x2="1426.5" y1="704" y2="704"/><ellipse cx="1257.5" cy="715" fill="#84BE84" rx="3" ry="3" style="stroke:#038048;stroke-width:1.0;"/><text fill="#000000" font-family="sans-serif" font-size="11" lengthAdjust="spacing" textLength="146" x="1266.5" y="718.2104">iterator() : Iterator&lt;Tree&gt;</text><ellipse cx="1257.5" cy="727.8047" fill="#84BE84" rx="3" ry="3" style="stroke:#038048;stroke-width:1.0;"/><text fill="#000000" font-family="sans-serif" font-size="11" lengthAdjust="spacing" textLength="155" x="1266.5" y="731.0151">getChildrens() : List&lt;Tree&gt;</text><!--MD5=[479b58e8535f8258f165075538e1cab6]
reverse link State to PancakeState--><path d="M565.11,361.705 C555.591,384.643 544.997,410.17 535.662,432.665 " fill="none" id="State-backto-PancakeState" style="stroke:#A80036;stroke-width:1.0;stroke-dasharray:7.0,7.0;"/><polygon fill="none" points="558.671,358.959,572.802,343.17,571.601,364.325,558.671,358.959" style="stroke:#A80036;stroke-width:1.0;"/><!--MD5=[ff27c851b9404416c034aba1617fc8fa]
reverse link Game to PancakeGame--><path d="M449.233,188.453 C442.445,202.238 435.225,216.902 428.411,230.74 " fill="none" id="Game-backto-PancakeGame" style="stroke:#A80036;stroke-width:1.0;stroke-dasharray:7.0,7.0;"/><polygon fill="none" points="443.025,185.213,458.14,170.363,455.585,191.398,443.025,185.213" style="stroke:#A80036;stroke-width:1.0;"/><!--MD5=[480206b57360204782f62575e8914631]
reverse link Player to HumanPlayer--><path d="M779.652,546.047 C782.519,584.946 786.416,637.805 788.816,670.374 " fill="none" id="Player-backto-HumanPlayer" style="stroke:#A80036;stroke-width:1.0;stroke-dasharray:7.0,7.0;"/><polygon fill="none" points="772.67,546.551,778.181,526.091,786.632,545.522,772.67,546.551" style="stroke:#A80036;stroke-width:1.0;"/><!--MD5=[84792a9ceba12ab2963e2dfec4d661ea]
reverse link Player to AIPlayer--><path d="M810.673,542.767 C826.801,564.531 846.108,590.934 863,615 C875.76,633.179 889.649,653.87 900.522,670.287 " fill="none" id="Player-backto-AIPlayer" style="stroke:#A80036;stroke-width:1.0;stroke-dasharray:7.0,7.0;"/><polygon fill="none" points="804.849,546.666,798.527,526.441,816.081,538.309,804.849,546.666" style="stroke:#A80036;stroke-width:1.0;"/><!--MD5=[f860067edfafd00ef4bbe77740f97359]
link MCTS to AIStrategy--><path codeLine="68" d="M1102.5,744.267 C1102.16,772.252 1101.73,808.503 1101.41,834.795 " fill="none" id="MCTS-to-AIStrategy" style="stroke:#A80036;stroke-width:1.0;stroke-dasharray:7.0,7.0;"/><polygon fill="#A80036" points="1101.35,839.916,1105.4577,830.9646,1101.41,834.9164,1097.4583,830.8687,1101.35,839.916" style="stroke:#A80036;stroke-width:1.0;"/><!--MD5=[71e1d17232088705df3a332f1432f287]
link MCTS to MoveTree--><path codeLine="69" d="M1165.26,744.051 C1199.84,767.406 1243.02,796.569 1279.04,820.898 " fill="none" id="MCTS-MoveTree" style="stroke:#A80036;stroke-width:1.0;"/><text fill="#000000" font-family="sans-serif" font-size="13" lengthAdjust="spacing" textLength="8" x="1260.3581" y="809.9289">1</text><!--MD5=[9d4b13ffbc93a811345aa776f60349c3]
reverse link Tree to MoveTree--><path d="M1341.71,758.356 C1343.4,778.616 1345.3,801.279 1346.93,820.829 " fill="none" id="Tree-backto-MoveTree" style="stroke:#A80036;stroke-width:1.0;stroke-dasharray:7.0,7.0;"/><polygon fill="none" points="1334.73,758.859,1340.04,738.345,1348.68,757.692,1334.73,758.859" style="stroke:#A80036;stroke-width:1.0;"/><!--MD5=[ded95e04c92f3b6abc81fcd6eff3f7c0]
link PancakeGame to Player--><path codeLine="85" d="M471.707,346.8 C477.45,350.102 483.252,353.213 489,356 C510.722,366.533 675.08,409.954 696,422 C715.654,433.317 734.602,450.133 749.119,464.721 " fill="none" id="PancakeGame-Player" style="stroke:#A80036;stroke-width:1.0;"/><text fill="#000000" font-family="sans-serif" font-size="13" lengthAdjust="spacing" textLength="66" x="643" y="399.0669">playerOne</text><text fill="#000000" font-family="sans-serif" font-size="13" lengthAdjust="spacing" textLength="8" x="734.7498" y="453.9267">1</text><!--MD5=[ded95e04c92f3b6abc81fcd6eff3f7c0]
link PancakeGame to Player--><path codeLine="86" d="M471.722,348.256 C477.415,351.174 483.205,353.804 489,356 C584.984,392.38 633.577,327.612 718,386 C744.878,404.589 760.345,439.714 768.441,464.969 " fill="none" id="PancakeGame-Player-1" style="stroke:#A80036;stroke-width:1.0;"/><text fill="#000000" font-family="sans-serif" font-size="13" lengthAdjust="spacing" textLength="67" x="737" y="399.0669">playerTwo</text><text fill="#000000" font-family="sans-serif" font-size="13" lengthAdjust="spacing" textLength="8" x="757.9125" y="453.7525">1</text><!--MD5=[aa4c2568bf0e079813ad6bb4a1660871]
link AIPlayer to AIStrategy--><path codeLine="88" d="M951.943,731.56 C984.926,762.083 1036.1,809.436 1069.07,839.954 " fill="none" id="AIPlayer-AIStrategy" style="stroke:#A80036;stroke-width:1.0;"/><text fill="#000000" font-family="sans-serif" font-size="13" lengthAdjust="spacing" textLength="54" x="1017" y="787.0669">strategy</text><text fill="#000000" font-family="sans-serif" font-size="13" lengthAdjust="spacing" textLength="8" x="1053.2103" y="828.7342">1</text><!--MD5=[0493a2167599f47968c82ec52e26db57]
link PancakeGame to PancakeState--><path codeLine="89" d="M432.518,356.139 C446.144,380.471 461.77,408.375 475.404,432.721 " fill="none" id="PancakeGame-PancakeState" style="stroke:#A80036;stroke-width:1.0;"/><text fill="#000000" font-family="sans-serif" font-size="13" lengthAdjust="spacing" textLength="80" x="459" y="399.0669">currentState</text><text fill="#000000" font-family="sans-serif" font-size="13" lengthAdjust="spacing" textLength="8" x="463.1826" y="422.1178">1</text><!--MD5=[4e6523cb2197beb025227415fecec50e]
link MoveTree to State--><path codeLine="91" d="M1395.36,820.888 C1440.74,765.197 1497.68,674.045 1445,615 C1434.58,603.317 1390.28,610.414 1375,607 C1341.12,599.431 1324,608.003 1301,582 C1252.89,527.614 1319.77,472.911 1268,422 C1185.79,341.148 842.631,309.693 679.66,299.142 " fill="none" id="MoveTree-State" style="stroke:#A80036;stroke-width:1.0;"/><text fill="#000000" font-family="sans-serif" font-size="13" lengthAdjust="spacing" textLength="80" x="1376" y="603.0669">currentState</text><text fill="#000000" font-family="sans-serif" font-size="13" lengthAdjust="spacing" textLength="8" x="687.4511" y="296.0455">1</text><!--MD5=[27c4d176ea0926f04ef391e4194dd0ef]
link MoveTree to Move--><path codeLine="92" d="M1413.1,820.726 C1434.3,799.819 1454.94,773.42 1464,744 C1480.88,689.208 1467.42,672.231 1464,615 C1463.33,603.829 1468.53,598.274 1461,590 C1449.67,577.56 1438.35,590.777 1424,582 C1345.59,534.054 1362.54,482.086 1293,422 C1099.38,254.708 795.222,167.214 680.164,138.676 " fill="none" id="MoveTree-Move" style="stroke:#A80036;stroke-width:1.0;"/><text fill="#000000" font-family="sans-serif" font-size="13" lengthAdjust="spacing" textLength="159" x="1425" y="500.0669">moveFromPreviousState</text><text fill="#000000" font-family="sans-serif" font-size="13" lengthAdjust="spacing" textLength="8" x="687.8454" y="136.4224">1</text><!--MD5=[f4e022f612285f4c57c8d33bc149c2a4]
@startuml
package pancake4{
    package gameEngine {
        interface State {
            + State(State state)
            + makeMove(Move move)
            + isFinished() : EndState
            + availableMoves() : Move[]
        }
    
        class PancakeState implements State{
            - player : int
            - board : char[][]
            + PancakeState(PancakeState state)
            + makeMove(Move move)
            + isFinished() : EndState
            + availableMoves() : Move[]
        }
        
        class Move{
            - row : int
            - column : int
        }
        
        interface Game {
            + init()
            + isFinished() : boolean
            + evolve ()
        }
        
        class PancakeGame implements Game{
            + init()
            + isFinished() : boolean
            + evolve ()
            - displayBoard()
            - playerMove() : Move
            - AIMove() : Move
        }
        
        enum EndState{
            NOT_FINISHED, PLAYER2_WON, PLAYER1_WON, DRAW
        }
    }
    
    package player{
        interface Player{
            + play()
        }
        
        class HumanPlayer implements Player{
            + play()
        }
        
        class AIPlayer implements Player{
            + play()
        }
        
        package artificialIntelligence{
            interface AIStrategy{
                + getNextMove(State state) : Move
            }
            
            class MCTS{
                - time : int
                + getNextMove(State state) : Move
                + setTime()
            }
            
            MCTS ..> AIStrategy
            MCTS - -"1" MoveTree
            
            
            class MoveTree implements Tree{
                - List<MoveTree> childrens
                - int depth
                + iterator() : Iterator<MoveTree>
                + getChildrens() : List<MoveTree>
            }
            
            interface Tree{
                + iterator() : Iterator<Tree>
                + getChildrens() : List<Tree>
            }
        }
        
        PancakeGame - -"1" Player : playerOne
        PancakeGame - -"1" Player : playerTwo
        
        AIPlayer - - "1" AIStrategy : strategy
        PancakeGame - - "1" PancakeState : currentState
        
        MoveTree - -"1" State : currentState
        MoveTree - -"1" Move : moveFromPreviousState
    }
}
@enduml

PlantUML version 1.2021.01beta3(Unknown compile time)
(GPL source distribution)
Java Runtime: Java(TM) SE Runtime Environment
JVM: Java HotSpot(TM) 64-Bit Server VM
Default Encoding: UTF-8
Language: en
Country: US
--></g></svg>